<?xml version="1.0" encoding="UTF-8"?>
<svg viewBox="0 0 32 32" xmlns="http://www.w3.org/2000/svg">
<path d="m14.523 30.523c8.0209 0 14.523-6.5022 14.523-14.523 0-8.0209-6.5022-14.523-14.523-14.523s-14.523 6.5022-14.523 14.523c0 8.0209 6.5022 14.523 14.523 14.523zm0-5.9077c4.7581 0 8.6154-3.8572 8.6154-8.6154 0-4.7581-3.8573-8.6154-8.6154-8.6154-4.7582 0-8.6154 3.8573-8.6154 8.6154 0 4.7582 3.8572 8.6154 8.6154 8.6154z" clip-rule="evenodd" fill-rule="evenodd"/>
<path d="m32 27.569c0 1.6314-1.3225 2.9539-2.9538 2.9539-1.6314 0-2.9539-1.3225-2.9539-2.9539 0-1.6313 1.3225-2.9538 2.9539-2.9538 1.6313 0 2.9538 1.3225 2.9538 2.9538z"/>
</svg>
