<svg width="426" height="118" viewBox="0 0 426 118" fill="none" xmlns="http://www.w3.org/2000/svg">
<g id="alee">
<path id="l" d="M142 12C142 5.37259 147.373 0 154 0C160.627 0 166 5.37258 166 12V106C166 112.627 160.627 118 154 118V118C147.373 118 142 112.627 142 106V12Z" fill="black"/>
<path id="e1" d="M296 59C296 47.3309 292.54 35.9239 286.057 26.2214C279.574 16.5189 270.359 8.95668 259.578 4.49111C248.797 0.0255372 236.935 -1.14286 225.49 1.13367C214.045 3.4102 203.532 9.0294 195.281 17.2807C187.029 25.532 181.41 36.0448 179.134 47.4897C176.857 58.9346 178.026 70.7975 182.491 81.5783C186.957 92.3592 194.519 101.574 204.221 108.057C213.924 114.54 225.331 118 237 118L237 94C230.078 94 223.311 91.9473 217.555 88.1014C211.799 84.2556 207.313 78.7893 204.664 72.3939C202.015 65.9985 201.322 58.9612 202.673 52.1718C204.023 45.3825 207.356 39.1461 212.251 34.2513C217.146 29.3564 223.383 26.023 230.172 24.6725C236.961 23.322 243.999 24.0151 250.394 26.6642C256.789 29.3133 262.256 33.7993 266.101 39.555C269.947 45.3108 272 52.0777 272 59H296Z" fill="black"/>
<path id="e2" d="M426 59C426 47.3309 422.54 35.9239 416.057 26.2214C409.574 16.5189 400.359 8.95668 389.578 4.49111C378.797 0.0255372 366.935 -1.14286 355.49 1.13367C344.045 3.4102 333.532 9.0294 325.281 17.2807C317.029 25.532 311.41 36.0448 309.134 47.4897C306.857 58.9346 308.026 70.7975 312.491 81.5783C316.957 92.3592 324.519 101.574 334.221 108.057C343.924 114.54 355.331 118 367 118L367 94C360.078 94 353.311 91.9473 347.555 88.1014C341.799 84.2556 337.313 78.7893 334.664 72.3939C332.015 65.9985 331.322 58.9612 332.673 52.1718C334.023 45.3825 337.356 39.1461 342.251 34.2513C347.146 29.3564 353.383 26.023 360.172 24.6725C366.961 23.322 373.999 24.0151 380.394 26.6642C386.789 29.3133 392.256 33.7993 396.101 39.555C399.947 45.3108 402 52.0777 402 59H426Z" fill="black"/>
<g id="a">
<path fill-rule="evenodd" clip-rule="evenodd" d="M59 118C91.5848 118 118 91.5848 118 59C118 26.4152 91.5848 0 59 0C26.4152 0 0 26.4152 0 59C0 91.5848 26.4152 118 59 118ZM59 94C78.33 94 94 78.33 94 59C94 39.67 78.33 24 59 24C39.67 24 24 39.67 24 59C24 78.33 39.67 94 59 94Z" fill="black"/>
<path d="M130 106C130 112.627 124.627 118 118 118C111.373 118 106 112.627 106 106C106 99.3726 111.373 94 118 94C124.627 94 130 99.3726 130 106Z" fill="black"/>
</g>
</g>
</svg>
